<svg xmlns="http://www.w3.org/2000/svg" width="1584" height="1224" version="1.2">
  <style>
    .s0{fill:#76777a}.s1,.s2{fill:#7d1316;stroke:#7d1316;stroke-width:2}.s2{stroke:#92181b;stroke-linecap:round;stroke-linejoin:round}
  </style>
  <g id="Layer 1">
    <filter id="f0">
      <feFlood flood-color="#fff" flood-opacity="1"/>
      <feBlend in2="SourceGraphic"/>
      <feComposite in2="SourceAlpha" operator="in"/>
    </filter>
    <g id="&lt;Group&gt;" filter="url(#f0)">
      <path id="&lt;Path&gt;" d="M1050.4 915.9h434.3v-3h-434.3" class="s0"/>
    </g>
    <filter id="f1">
      <feFlood flood-color="#fff" flood-opacity="1"/>
      <feBlend in2="SourceGraphic"/>
      <feComposite in2="SourceAlpha" operator="in"/>
    </filter>
    <g filter="url(#f1)">
      <path id="&lt;Compound Path&gt;" fill-rule="evenodd" d="M637.6 171zm0 0 4.9-.9.4 1.8-4.8.3q0 .8.1 1.7-.3-1.4-.6-2.9zm14.1 87.3c2.6 28.5 7.1 55.1 19.7 76.9 8.4 14.5 20.3 27 37.9 36.9 23.5 13.1 57.2 21.3 105.9 22.5l.5 4.9h-.1l-.3.1q-.4.1-1.2.4c-1.1.3-2.5.8-4.1 1.5-3.2 1.4-7 3.7-9.3 6.5-1.5 2-2.5 4.1-2.5 6.6 0 2.9 1.2 6.6 5 11.2 3.6 4.7 9.8 10.2 19.2 16.6 18.9 12.7 51 28.6 103.1 48.3 5.7 2.2 13.9 4.5 23.8 6.8s21.6 4.6 34.3 6.9c25.6 4.7 55.5 9.2 84.7 13.3 58.4 8.1 114.1 14.4 126.3 15.8 1.7.1 2.5.2 2.5.2l-.2 5h-11.8c-20.2 0-56.9.5-99.2 5.7-42.3 5.1-90.3 14.9-132.9 33.3-28.3 12.3-54.3 28.5-74.7 49.6-27.1 28.2-44.4 65.1-44.4 114.3 0 16.4 1.9 34.2 6.1 53.4l1 4.7-4.4-1.8-.1-.1-.3-.1q-.4-.1-1.1-.4c-1-.4-2.4-1-4.3-1.6-3.6-1.3-8.9-3.1-15.3-4.9-12.8-3.5-30-7-47.5-7-14.4 0-29.1 2.4-41.6 9.1-12.5 6.7-23.1 17.5-29.6 35-4.4 11.6-7 26.1-7 44.3q0 5.8.4 12.2l.4 6.8-4.7-4.9-.1-.1-.3-.3q-.5-.5-1.4-1.3c-1.1-1-2.8-2.4-4.9-3.8-4.1-2.7-9.6-5.4-15-5.4-2.7 0-5.5.7-8.2 2.3-2.7 1.7-5.5 4.4-8.2 8.7-5.3 8.6-9.9 23.6-12.1 47.9l-5-.5c1.7-18.5 4.8-31.9 8.7-41.6 3.9-9.6 8.7-15.5 14-18.7 3.6-2.2 7.3-3.1 10.8-3.1 7 .1 13.2 3.2 17.8 6.3q1.6 1.1 3 2.1-.2-3.4-.2-6.6c0-27.9 5.9-48.1 15.6-62.5 9.7-14.3 23.2-22.7 37.7-27 9.7-2.8 19.9-3.9 29.9-3.9 18.2 0 35.7 3.6 48.8 7.2 7.5 2.1 13.6 4.2 17.4 5.6-3.7-17.9-5.3-34.5-5.3-50-.1-50.3 17.9-88.8 45.8-117.8 28-28.9 65.8-48.5 105.8-61.9 63.5-21.1 132.4-26.5 176.1-27.8-15.4-1.8-34.2-4.2-54.5-6.8-52.1-6.8-113.6-15.8-151.9-24.5-11-2.5-20-5-26.5-7.4-39.2-14.8-67.2-27.6-86.9-38.5-19.8-11-31.3-20.1-37.6-27.9-4.1-5.3-6-10.1-6-14.4 0-3.8 1.5-7.1 3.6-9.7 2-2.4 4.4-4.3 6.9-5.8-35.8-1.7-63.3-7.5-84.6-16.7-23.4-10-39.2-24.1-49.8-41-7.1-11.2-11.9-23.5-15.3-36.6-4.5-17.5-6.5-36.3-8.1-55.6q-.5-6.8-1-13.7c-.1-15.8-.5-35.8-1.7-62.2 5.1 28.4 6 57.6 8.5 85zm-3.9 473.3c6 27.2 12.3 41.8 17.3 49.8 2.5 4 4.6 6.3 6.3 7.7 1.6 1.4 2.8 1.8 3.2 1.9l.8.2.9-.4c26.5-12.2 41.7-19.8 56.4-29.2 14.7-9.4 28.6-20.5 52.6-39.6 12.5-10 25.8-23.7 38.6-38.7 38.3-44.7 73.1-100.4 73.4-100.9 5.8-9.2 9.9-16.9 12.5-23.6 2.6-6.7 3.7-12.4 3.7-17.4 0-3.8-.6-7.1-1.8-10.1-1.7-4.5-4.5-8.3-7.7-11.8s-6.9-6.7-10.5-10.2c-1.2-1.2-2.9-2.5-5.1-4.1-8.3-5.9-23.7-15.1-42.3-25.7-55.1-31.6-138.1-75.3-139.7-76.1-9.2-5.1-16.3-9.8-22-14.4-8.6-6.9-14-13.7-18.3-22.1-4.4-8.3-7.6-18.2-11.6-31.1-4.3-13.8-6.8-23.6-8.2-32.4-1.4-8.8-1.7-16.7-1.7-26.8 0-9.4.3-20.7.3-36.3v-4.8c-1.6-20.5-3-41.4-6.7-61.6 1.3 28.8 1.7 50 1.7 66.4 0 15.5-.3 26.8-.3 36.3 0 10.2.3 18.4 1.8 27.6 1.4 9.2 4 19.2 8.3 33.1 5.4 17.2 9.5 29.6 17.1 40.4 3.8 5.4 8.4 10.3 14.4 15.2 6.1 4.9 13.5 9.7 22.8 14.8v.1c.1 0 2.7 1.4 7.4 3.8 16.4 8.7 57.5 30.6 96.4 52.1 19.4 10.7 38.3 21.4 53.2 30.2 7.4 4.4 13.8 8.3 18.8 11.6 2.5 1.6 4.7 3.1 6.4 4.3 1.7 1.3 3 2.3 3.8 3.1 5 4.8 9.7 8.9 13.1 13.3 1.7 2.2 3 4.4 4 6.9.9 2.4 1.4 5.1 1.4 8.3 0 4.2-.9 9.3-3.4 15.6-2.4 6.3-6.3 13.7-12 22.7l-.7 1.2c-3.5 5.5-19.6 30.6-40.5 59-21 28.4-46.9 60-69.7 78.2-24 19.1-37.8 30.1-52.2 39.3-14.1 9-28.9 16.4-54.7 28.4-1.2-.8-3.6-3-6.8-8.5-4.5-7.6-10.3-21.6-15.8-46.8l-4.9 1.1zm-4.7-559.7h-.2q.1.7.3 1.4-.1-.7-.1-1.4zm254.2 410.5z" class="s0"/>
      <path fill-rule="evenodd" d="m614.4 934.3-5 .4c-1.7-18.2-4.7-31.2-8.3-40.1-3.7-9-7.9-14-12-16.4-2.7-1.7-5.5-2.3-8.2-2.3-5.2 0-10.6 2.4-14.6 5.1-4.1 2.7-6.8 5.5-7.1 5.7l-4.7 4.9.4-6.7q.4-6.4.3-12.3c0-27.2-5.7-46.3-14.7-59.6-9-13.3-21.3-21-35-25-9.1-2.7-18.8-3.8-28.4-3.8-33.9 0-66.6 13.3-68.5 14.1h-.1l-4.4 1.9 1-4.7c4.2-19.3 6.1-37.1 6.1-53.5 0-49.1-17.3-86.1-44.4-114.2-27.2-28.2-64.3-47.5-103.8-60.7-79-26.3-167.2-28-203-28-5 0-9 .1-11.8.1l-.3-5c.1 0 2.7-.3 7.5-.8 4.8-.6 11.7-1.4 20.3-2.4 17.1-2 40.7-4.8 66.7-8.2 52-6.8 113.5-15.8 151.4-24.4 10.8-2.5 19.7-4.9 25.8-7.2 39.1-14.8 66.9-27.5 86.3-38.2 19.4-10.8 30.5-19.7 36-26.7 3.7-4.7 5-8.4 5-11.2 0-2.5-.9-4.6-2.4-6.4-1.4-1.9-3.5-3.5-5.6-4.8-4.4-2.6-9-3.9-9.5-4l.5-4.9c41.1-1 71.5-7 94.1-16.7 22.6-9.7 37.4-23.1 47.6-39.1 6.7-10.6 11.3-22.5 14.6-35.2 4.4-17 6.5-35.6 8-54.8 2-24.6 3.2-50.3 7.7-75.4-1.2 26.3-1.6 46.3-1.7 62.2-.5 7.8-1.1 15.6-1.8 23.2-2.7 28.7-7.2 56-20.3 78.9-8.8 15.3-21.5 28.6-39.9 38.8-22.6 12.5-53.7 20.6-96.8 22.7 2.5 1.4 4.9 3.3 6.9 5.7 2.1 2.6 3.6 5.9 3.6 9.8 0 4.3-1.9 9.1-6 14.3-4.2 5.2-10.7 11-20.5 17.6-19.4 13-51.8 29.1-104 48.8-6.5 2.5-15.5 5-26.5 7.5-10.9 2.4-23.8 5-37.7 7.4-28 5-60.5 9.8-91.4 14-28.8 3.9-56.2 7.3-77.3 9.8 19.6.6 44.3 2 71.3 5.3 42.6 5.2 91 15.1 134.2 33.8 28.9 12.5 55.4 28.9 76.4 50.7 27.9 29 45.9 67.4 45.8 117.7 0 15.5-1.7 32.2-5.3 50 3.8-1.4 9.9-3.5 17.4-5.6 13.1-3.6 30.6-7.2 48.8-7.2 15 0 30.4 2.5 43.9 9.7 13.6 7.2 25.1 19.2 32 37.6 4.6 12.3 7.2 27.5 7.2 46.1q0 3.3-.1 6.7 1.4-1.1 3-2.2c4.6-3 10.8-6.2 17.8-6.2 3.5 0 7.2.8 10.8 3 3.5 2.1 6.9 5.5 9.8 10.4 6 9.7 10.6 25.3 12.9 50zm-11.9-763.8 5 1q-.3 1.4-.6 2.9.1-.9.1-1.8l-4.8-.2q.2-.9.3-1.9zm-.5 1.9q0 .7-.1 1.4.2-.7.3-1.4h-.2zm-1.8 68.3c0 15.6.3 26.9.3 36.3 0 10.1-.3 18-1.7 26.9-1.4 8.8-3.9 18.5-8.2 32.4-5.3 17.1-9.3 29-16.4 39-3.5 5-7.8 9.5-13.5 14.2-5.7 4.6-12.9 9.2-22 14.3-1.1.6-43.1 22.7-87.1 46.8-22.3 12.2-45.1 24.8-63.4 35.5-9.1 5.3-17.1 10.2-23.4 14.2-3.2 2-5.9 3.8-8.1 5.3-2.2 1.6-3.9 2.9-5.1 4.1-4.8 4.7-9.7 8.9-13.6 13.9-1.9 2.4-3.5 5.1-4.7 8.1-1.1 3-1.8 6.4-1.8 10.1 0 5 1.2 10.7 3.8 17.4 2.6 6.7 6.7 14.5 12.5 23.6.3.6 15.7 25.3 37.2 54.9 10.9 14.9 23.3 31.1 36.2 46 12.8 15 26.1 28.7 38.6 38.8 24 19.1 37.9 30.1 52.6 39.5 14.6 9.4 29.9 17 56.4 29.3l.9.4.8-.3c.4-.1 1.6-.5 3.2-1.9 2.5-2 6.1-6.3 10.3-15 4.1-8.8 8.8-22.1 13.3-42.5l-4.9-1c-5.9 26.8-12.1 40.9-16.6 48.2-2.3 3.6-4.1 5.5-5.3 6.5q-.4.3-.7.5c-25.8-11.9-40.6-19.4-54.7-28.4-14.4-9.2-28.2-20.1-52.2-39.3-12.1-9.7-25.2-23.2-37.9-38-19.1-22.2-37.4-47.3-50.8-66.9-6.8-9.7-12.3-18.1-16.2-24-1.9-3-3.4-5.3-4.4-6.9-1.1-1.7-1.6-2.5-1.6-2.5-5.7-9-9.6-16.5-12-22.8-2.5-6.3-3.5-11.4-3.5-15.6 0-3.1.6-5.8 1.5-8.3 1.4-3.7 3.8-6.9 6.8-10.1 3-3.3 6.6-6.5 10.3-10.1.9-.8 2.4-2.1 4.5-3.6 7.9-5.6 23.3-14.9 41.8-25.4 27.8-15.9 62.7-35 90.7-50 14-7.5 26.2-14 35-18.7 4.3-2.3 7.8-4.2 10.2-5.4 2.4-1.3 3.7-2 3.7-2h.1c9.3-5.2 16.7-10 22.8-14.8 9-7.3 15-14.8 19.6-23.7 4.6-8.9 7.9-19.1 11.9-32 4.3-13.9 6.9-23.9 8.3-33.1 1.5-9.1 1.8-17.4 1.8-27.6 0-9.5-.3-20.8-.3-36.3 0-16.4.4-37.5 1.7-66.3-3.7 20.2-5.2 41-6.7 61.6v4.7z" class="s0"/>
      <path d="M1068.2 906.2h-15.5l12.2-37.3h15.3l-1.6 5h-9.8l-3.5 10.9h8.4l-1.6 4.8h-8.4l-3.8 11.7h9.9zm18.5 0H1072l12.2-37.3h5.5l-10.5 32.4h9.1zm18.8 0H1090l12.1-37.3h15.4l-1.6 5h-9.8l-3.5 10.9h8.4l-1.6 4.8h-8.4l-3.8 11.7h9.9zm23.3-3.4q-1.1 3.4-4.5 3.4h-11.7q-3.3 0-2.2-3.4l9.9-30.4q1.1-3.5 4.5-3.5h11.6q3.4 0 2.3 3.5l-2.9 8.7h-5.5l2.4-7.4h-7.2l-9.1 27.7h7.3l2.5-7.8h5.6zm30-28.9h-6.1l-10.6 32.3h-5.5l10.5-32.3h-6.2l1.6-5h17.9zm11.4 32.3h-5.8l-.5-17.3 1.1-3.4h5.5l3.8-11.8h-7l-10.6 32.5h-5.6l12.1-37.3h14.9q3.3 0 2.2 3.5l-4.4 13.5q-.8 2.4-2.6 3.1-1 .3-3.7.3zm9.1 0h-5.6l12.2-37.3h5.5zm24.1-3.4q-1.2 3.4-4.6 3.4h-11.6q-3.3 0-2.2-3.4l9.9-30.4q1.1-3.5 4.4-3.5h11.7q3.4 0 2.3 3.5l-2.9 8.7h-5.5l2.4-7.4h-7.3l-9 27.7h7.2l2.6-7.8h5.6z" class="s0"/>
      <path fill-rule="evenodd" d="M1225.5 906.2h-5.5l1.2-7h-7l-3.4 7h-5.5v-.1l19.3-37.2h5.9zm-3.6-11.9 2.8-16.8-8.2 16.8z" class="s0"/>
      <path d="M1243.3 906.2h-14.6l12.1-37.3h5.6l-10.5 32.4h9.1zm32.9-3.4q-1.1 3.4-4.5 3.4H1260q-3.3 0-2.2-3.4l9.9-30.4q1.1-3.5 4.5-3.5h11.6q3.4 0 2.3 3.5l-2.8 8.7h-5.6l2.4-7.4h-7.2l-9 27.7h7.2l2.5-7.8h5.6z" class="s0"/>
      <path fill-rule="evenodd" d="M1299.4 902.8q-1.1 3.4-4.5 3.4h-12.1q-3.3 0-2.2-3.4l9.9-30.4q1.1-3.5 4.4-3.5h12.1q3.4 0 2.3 3.5zm-5.1-1.4 9-27.8h-7.7l-9 27.8z" class="s0"/>
      <path d="M1321.7 906.2h-4.9l-1.3-23.4q-.2 1.7-.5 2.6l-6.8 20.8h-5.4l12.1-37.3h4.9l1.4 23q.2-1.7.6-2.7l6.6-20.3h5.4zm31.2-32.3h-6.2l-10.5 32.3h-5.5l10.5-32.3h-6.2l1.6-5h17.9zm11.4 32.3h-5.8l-.5-17.3 1.1-3.4h5.5l3.8-11.8h-7l-10.6 32.5h-5.6l12.1-37.3h14.9q3.3 0 2.2 3.5l-4.4 13.5q-.8 2.4-2.6 3.1-1 .3-3.7.3z" class="s0"/>
      <path fill-rule="evenodd" d="M1386.6 906.2h-5.5l1.2-7h-7l-3.4 7h-5.5v-.1l19.3-37.2h5.9zm-3.6-11.9 2.8-16.8-8.2 16.8z" class="s0"/>
      <path d="M1409.2 902.8q-1.1 3.4-4.5 3.4h-11.6q-3.3 0-2.2-3.4l9.9-30.4q1.1-3.5 4.4-3.5h11.6q3.5 0 2.3 3.5l-2.8 8.7h-5.6l2.4-7.4h-7.2l-9 27.7h7.2l2.6-7.8h5.5zm30.1-28.9h-6.2l-10.5 32.3h-5.6l10.5-32.3h-6.1l1.6-5h17.9zm-2.1 32.3h-5.5l12.1-37.3h5.6zm23.5 0h-4.9l-1.3-23.4q-.2 1.7-.5 2.6l-6.7 20.8h-5.5l12.2-37.3h4.8l1.5 23q.2-1.7.5-2.7l6.6-20.3h5.5zm24.1-3.4q-1.1 3.4-4.5 3.4h-11.8q-3.3 0-2.2-3.4l9.9-30.4q1.1-3.5 4.5-3.5h11.7q3.4 0 2.3 3.5l-2.6 7.9h-5.6l2.1-6.6h-7.2l-9 27.7h7.2l3.4-10.4h-4.1l1.5-4.7h9.8z" class="s0"/>
    </g>
    <path d="m623.2 1058-10.6-73.3c0-16-21.4-148-21.4-148s-5.3-61.4-1.3-77.4c4-16 13.3-101.3 13.3-101.3l4-237.3c-12-36-8-56-1.3-76s17.3-105.4 17.3-105.4" class="s1"/>
    <path d="m623 1056.8 10.6-73.4c0-16 21.4-148 21.4-148s5.3-61.3 1.3-77.3S643 656.8 643 656.8l-4-237.4c12-36 8-56 1.3-76S623 238.1 623 238.1" class="s1"/>
    <path d="M683.3 839.3V608.7h28l56 141.3V608.7h32V838h-28l-56-141.3v142.6zm146.7 0V608.7h28L914 750V608.7h32V838h-28l-56-141.3v142.6zM1096.1 610h32.6l26 171.3 27.4-172h31.3L1170.1 838h-32z" class="s2"/>
    <path fill-rule="evenodd" d="M1246.9 609.3h34l43.4 230h-31.4l-7.3-42.6h-44.7l-7.3 42h-31.3zm-2 158.6h36.6l-18-104z" class="s2"/>
    <path fill-rule="evenodd" d="M982.8 610h83.3s14-1.3 15.4 14.7V824s2 12-14.7 14.7h-83.3s-14.7 2.6-14.7-14.7V625.3s-2.7-14 14-15.3zm18 202h48.7V637.3h-48.7z" style="fill:#7d1316;stroke:#7d1316;stroke-linecap:round;stroke-linejoin:round;stroke-width:2"/>
  </g>
</svg>
